<?xml version="1.0" encoding="utf-8"?>
<!-- Generated by IcoMoon.io -->
<!DOCTYPE svg PUBLIC "-//W3C//DTD SVG 1.1//EN" "http://www.w3.org/Graphics/SVG/1.1/DTD/svg11.dtd">
<svg version="1.1" xmlns="http://www.w3.org/2000/svg" xmlns:xlink="http://www.w3.org/1999/xlink" width="512" height="512" viewBox="0 0 512 512">
<g>
</g>
	<path d="M144.537 200.131c-4.803-4.792-5.847-11.131-5.888-15.616-0.020-10.178 4.762-20.849 13.118-29.276 14.121-14.213 34.611-17.705 44.831-7.598 0 0 1.925 1.946 5.406 5.335l47.841-46.828c-3.901-3.85-6.103-6.041-6.103-6.041-23.634-23.429-58.163-30.177-90.46-21.125 0.399 2.775 0.594 5.591 0.594 8.458 0 34.334-27.853 62.157-62.167 62.157-4.516 0-8.95-0.492-13.271-1.423-4.393 11.806-6.686 24.208-6.686 36.588 0.133 24.238 9.175 46.571 25.641 62.874l106.383 105.534 47.78-46.817c-47.934-47.606-107.018-106.219-107.018-106.219z" fill="#000000" />
	<path d="M428.872 362.394c2.007 0 3.993 0.103 5.98 0.307 3.134-10.066 4.803-20.51 4.7-30.914-0.113-24.217-9.154-46.572-25.641-62.884 0 0-55.777-56.361-104.059-104.243l-46.858 46.858c48.466 48.097 103.803 104.899 103.803 104.899 4.834 4.772 5.827 11.151 5.827 15.647 0.041 10.158-4.7 20.808-13.056 29.255-8.407 8.438-18.974 13.271-29.163 13.312-4.505 0.041-10.844-0.962-15.647-5.735 0 0-1.229-1.157-5.97-5.858l-48.046 46.623 6.851 6.769c16.435 16.333 38.861 25.252 63.068 25.149 12.514-0.082 24.945-2.539 36.813-7.117-0.522-3.236-0.809-6.543-0.809-9.902 0-34.355 27.863-62.167 62.208-62.167z" fill="#000000" />
	<path d="M434.852 362.701c-5.294 16.834-14.766 32.656-27.771 45.742-11.449 11.55-25.067 20.377-39.608 26.030 4.741 29.655 30.423 52.296 61.399 52.296 34.314 0 62.208-27.863 62.208-62.198 0-32.317-24.709-58.88-56.228-61.87z" fill="#000000" />
	<path d="M434.852 362.701c-1.986-0.215-3.973-0.307-5.98-0.307-34.345 0-62.208 27.822-62.208 62.178 0 3.358 0.286 6.656 0.809 9.902 14.541-5.652 28.16-14.479 39.608-26.030 12.995-13.087 22.477-28.918 27.771-45.742z" fill="#000000" />
	<path d="M153.293 78.981c-4.106-30.331-30.116-53.75-61.584-53.75-34.365 0-62.178 27.843-62.178 62.208 0 29.778 20.931 54.681 48.906 60.744 5.54-14.684 14.305-28.457 25.815-40.079 14.254-14.377 31.344-24.136 49.039-29.123z" fill="#000000" />
	<path d="M153.876 87.439c0-2.867-0.195-5.683-0.594-8.458-17.695 4.987-34.775 14.746-49.029 29.123-11.51 11.623-20.275 25.395-25.815 40.080 4.322 0.932 8.745 1.423 13.271 1.423 34.325-0.010 62.167-27.832 62.167-62.167z" fill="#000000" />
	<path d="M197.212 368.906c-4.813 4.772-11.182 5.765-15.688 5.735-10.158-0.041-20.767-4.874-29.123-13.312-8.397-8.448-13.168-19.098-13.097-29.255 0.020-4.495 1.044-10.885 5.816-15.647 0 0 1.925-1.894 5.345-5.253l-47.36-47.257c-3.257 3.205-5.141 4.997-5.141 4.997-16.404 16.313-25.508 38.656-25.61 62.884-0.020 10.404 1.567 20.839 4.741 30.914 1.945-0.215 3.953-0.307 6.001-0.307 34.325 0 62.167 27.822 62.167 62.178 0 3.358-0.307 6.656-0.829 9.902 11.879 4.577 24.351 7.045 36.833 7.117 24.228 0.103 46.633-8.817 63.068-25.149l106.363-105.513-47.37-47.257c-48.272 47.851-106.117 105.226-106.117 105.226z" fill="#000000" />
	<path d="M358.031 87.439c0-2.867 0.226-5.683 0.604-8.458-32.327-9.063-66.786-2.314-90.43 21.125 0 0-58.153 57.712-106.506 105.636l47.606 47.094c48.22-47.872 106.066-105.216 106.066-105.216 10.168-10.076 30.649-6.595 44.79 7.619 8.336 8.428 13.138 19.097 13.097 29.276 0 4.485-1.055 10.834-5.847 15.616 0 0-2.345 2.304-6.441 6.38l47.616 47.042 5.909-5.909c16.497-16.302 25.61-38.626 25.692-62.874 0.031-12.38-2.314-24.781-6.717-36.588-4.27 0.932-8.714 1.423-13.209 1.423-34.334-0.010-62.228-27.832-62.228-62.167z" fill="#000000" />
	<path d="M77.097 362.701c-31.539 2.99-56.176 29.553-56.176 61.87 0 34.345 27.812 62.198 62.178 62.198 30.935 0 56.638-22.64 61.337-52.296-14.52-5.652-28.15-14.479-39.618-26.030-12.923-13.087-22.446-28.918-27.719-45.742z" fill="#000000" />
	<path d="M83.097 362.394c-2.048 0-4.055 0.103-6.001 0.307 5.273 16.834 14.787 32.656 27.719 45.742 11.469 11.55 25.098 20.377 39.619 26.030 0.522-3.236 0.829-6.543 0.829-9.902 0.010-34.365-27.843-62.178-62.167-62.178z" fill="#000000" />
	<path d="M482.416 87.439c0-34.365-27.832-62.208-62.157-62.208-31.519 0-57.508 23.419-61.635 53.75 17.736 4.987 34.786 14.746 49.060 29.123 11.51 11.623 20.275 25.395 25.784 40.080 27.986-6.062 48.947-30.966 48.947-60.743z" fill="#000000" />
	<path d="M358.625 78.981c-0.368 2.775-0.604 5.591-0.604 8.458 0 34.334 27.894 62.157 62.228 62.157 4.495 0 8.94-0.492 13.209-1.423-5.499-14.684-14.274-28.457-25.784-40.079-14.254-14.367-31.303-24.126-49.050-29.112z" fill="#000000" />
</svg>
